<?xml version="1.0" encoding="utf-8"?>
<!-- Generator: Adobe Illustrator 22.0.1, SVG Export Plug-In . SVG Version: 6.00 Build 0)  -->
<svg version="1.1" id="Layer_1" xmlns="http://www.w3.org/2000/svg" xmlns:xlink="http://www.w3.org/1999/xlink" x="0px" y="0px"
	 viewBox="0 0 508.3 559.5" style="enable-background:new 0 0 508.3 559.5;" xml:space="preserve">
<style type="text/css">
	.st0{fill:#82878C;}
</style>
<g id="Layer_2_1_">
	<path class="st0" d="M468,109.8L468,109.8L294.4,9.6c-22.1-12.8-58.4-12.8-80.5,0L40.3,109.8C18.2,122.6,0,154,0,179.5V380
		c0,25.6,18.1,56.9,40.3,69.7l173.6,100.2c22.1,12.8,58.4,12.8,80.5,0L468,449.8c22.2-12.8,40.3-44.2,40.3-69.7V179.6
		C508.3,154,490.2,122.6,468,109.8z M379.5,183.2v59.3h-160v-59.3H379.5z M141.8,373.7c-16.4,0-29.6-13.3-29.6-29.6
		c0-16.4,13.3-29.6,29.6-29.6s29.6,13.3,29.6,29.6C171.4,360.4,158.1,373.7,141.8,373.7z M141.8,242.5c-16.4,0-29.6-13.3-29.6-29.6
		s13.3-29.6,29.6-29.6s29.6,13.3,29.6,29.6S158.1,242.5,141.8,242.5z M219.5,373.7v-59.3h160v59.3H219.5z"/>
</g>
</svg>
